<?xml version="1.0" encoding="UTF-8"?>
<svg id="Layer_1" xmlns="http://www.w3.org/2000/svg" version="1.1" viewBox="0 0 1000 750">
  <!-- Generator: Adobe Illustrator 29.8.1, SVG Export Plug-In . SVG Version: 2.1.1 Build 2)  -->
  <defs>
    <style>
      .st0 {
        fill: #fff;
      }

      .st1 {
        fill: #f0f0f0;
      }
    </style>
  </defs>
  <rect class="st0" width="1000" height="750"/>
  <circle class="st1" cx="28.42" cy="73.42" r="33.42"/>
  <circle class="st1" cx="77.42" cy="124.42" r="33.42"/>
  <circle class="st1" cx="156.42" cy="106.84" r="33.42"/>
  <circle class="st1" cx="175.42" cy="40" r="33.42"/>
  <circle class="st1" cx="231.42" cy="91" r="33.42"/>
  <circle class="st1" cx="292.42" cy="140.26" r="33.42"/>
  <circle class="st1" cx="204.42" cy="163.26" r="33.42"/>
  <circle class="st1" cx="271.26" cy="215.26" r="33.42"/>
  <circle class="st1" cx="181.26" cy="230.1" r="33.42"/>
  <circle class="st1" cx="61.84" cy="200.1" r="33.42"/>
  <circle class="st1" cx="-.01" cy="148.42" r="33.42"/>
  <circle class="st1" cx="-16.01" cy="215.26" r="33.42"/>
  <circle class="st1" cx="33.41" cy="266.94" r="33.42"/>
  <circle class="st1" cx="91.26" cy="314.94" r="33.42"/>
  <circle class="st1" cx="164.58" cy="300.36" r="33.42"/>
  <circle class="st1" cx="242.26" cy="281.52" r="33.42"/>
  <circle class="st1" cx="295.75" cy="333.78" r="33.42"/>
  <circle class="st1" cx="319.94" cy="6.58" r="33.42"/>
  <circle class="st1" cx="372.75" cy="57.58" r="33.42"/>
  <circle class="st1" cx="455.75" cy="40" r="33.42"/>
  <circle class="st1" cx="533.75" cy="18.74" r="33.42"/>
  <circle class="st1" cx="607.75" cy="-1.58" r="33.42"/>
  <circle class="st1" cx="687.75" cy="-20.58" r="33.42"/>
  <circle class="st1" cx="431.6" cy="107.42" r="33.42"/>
  <circle class="st1" cx="514.09" cy="91" r="33.42"/>
  <circle class="st1" cx="588.09" cy="73.42" r="33.42"/>
  <circle class="st1" cx="667.09" cy="52.16" r="33.42"/>
  <circle class="st1" cx="746.09" cy="31.84" r="33.42"/>
  <circle class="st1" cx="891.09" cy="-9.26" r="33.42"/>
  <circle class="st1" cx="950.76" cy="48.74" r="33.42"/>
  <circle class="st1" cx="868.76" cy="66.84" r="33.42"/>
  <circle class="st1" cx="800.42" cy="91" r="33.42"/>
  <circle class="st1" cx="716.42" cy="107.42" r="33.42"/>
  <circle class="st1" cx="641.17" cy="127.89" r="33.42"/>
  <circle class="st1" cx="563.17" cy="148.42" r="33.42"/>
  <circle class="st1" cx="480.68" cy="163.26" r="33.42"/>
  <circle class="st1" cx="406.17" cy="181.84" r="33.42"/>
  <circle class="st1" cx="393.26" cy="248.1" r="33.42"/>
  <circle class="st1" cx="465.02" cy="233.52" r="33.42"/>
  <circle class="st1" cx="538.75" cy="215.26" r="33.42"/>
  <circle class="st1" cx="621.94" cy="200.1" r="33.42"/>
  <circle class="st1" cx="681.75" cy="235.52" r="33.42"/>
  <circle class="st1" cx="924.51" cy="124.42" r="33.42"/>
  <circle class="st1" cx="1012.76" cy="106.84" r="33.42"/>
  <circle class="st1" cx="991.42" cy="173.68" r="33.42"/>
  <circle class="st1" cx="908.42" cy="196.68" r="33.42"/>
  <circle class="st1" cx="966.58" cy="240.52" r="33.42"/>
  <circle class="st1" cx="884.42" cy="263.52" r="33.42"/>
  <circle class="st1" cx="806.18" cy="273.94" r="33.42"/>
  <circle class="st1" cx="728.74" cy="296.94" r="33.42"/>
  <circle class="st1" cx="648.33" cy="313.94" r="33.42"/>
  <circle class="st1" cx="520.8" cy="281.52" r="33.42"/>
  <circle class="st1" cx="498.44" cy="352.78" r="33.42"/>
  <circle class="st1" cx="447.26" cy="303.78" r="33.42"/>
  <circle class="st1" cx="372.75" cy="319.36" r="33.42"/>
  <circle class="st1" cx="346.25" cy="390.62" r="33.42"/>
  <circle class="st1" cx="271.26" cy="409.46" r="33.42"/>
  <circle class="st1" cx="189.84" cy="424.04" r="33.42"/>
  <circle class="st1" cx="116.42" cy="437.46" r="33.42"/>
  <circle class="st1" cx="64.75" cy="390.62" r="33.42"/>
  <circle class="st1" cx="8.3" cy="333.78" r="33.42"/>
  <circle class="st1" cx="-9.75" cy="409.46" r="33.42"/>
  <circle class="st1" cx="28.42" cy="527.3" r="33.42"/>
  <circle class="st1" cx="98.17" cy="514.3" r="33.42"/>
  <circle class="st1" cx="181.26" cy="490.88" r="33.42"/>
  <circle class="st1" cx="154.85" cy="560.72" r="33.42"/>
  <circle class="st1" cx="231.42" cy="537.4" r="33.42"/>
  <circle class="st1" cx="325.84" cy="457.46" r="33.42"/>
  <circle class="st1" cx="408.85" cy="437.46" r="33.42"/>
  <circle class="st1" cx="480.68" cy="421.04" r="33.42"/>
  <circle class="st1" cx="555.19" cy="399.78" r="33.42"/>
  <circle class="st1" cx="629.69" cy="385.46" r="33.42"/>
  <circle class="st1" cx="781.25" cy="348.36" r="33.42"/>
  <circle class="st1" cx="860.33" cy="326.78" r="33.42"/>
  <circle class="st1" cx="944.76" cy="310.68" r="33.42"/>
  <circle class="st1" cx="1017.6" cy="303.78" r="33.42"/>
  <circle class="st1" cx="917.84" cy="380.84" r="33.42"/>
  <circle class="st1" cx="835.34" cy="399.78" r="33.42"/>
  <circle class="st1" cx="893.75" cy="447.68" r="33.42"/>
  <circle class="st1" cx="814.67" cy="466.62" r="33.42"/>
  <circle class="st1" cx="978.18" cy="429.78" r="33.42"/>
  <circle class="st1" cx="957.93" cy="500.04" r="33.42"/>
  <circle class="st1" cx="871.31" cy="514.52" r="33.42"/>
  <circle class="st1" cx="791.97" cy="538.3" r="33.42"/>
  <circle class="st1" cx="718.87" cy="555.56" r="33.42"/>
  <circle class="st1" cx="645.67" cy="571.72" r="33.42"/>
  <circle class="st1" cx="567.17" cy="591.14" r="33.42"/>
  <circle class="st1" cx="491.87" cy="609.98" r="33.42"/>
  <circle class="st1" cx="413.84" cy="630.56" r="33.42"/>
  <circle class="st1" cx="331.42" cy="647.4" r="33.42"/>
  <circle class="st1" cx="259" cy="665.34" r="33.42"/>
  <circle class="st1" cx="189.84" cy="682.56" r="33.42"/>
  <circle class="st1" cx="131.16" cy="630.56" r="33.42"/>
  <circle class="st1" cx="57.84" cy="649.14" r="33.42"/>
  <circle class="st1" cx="31.33" cy="724.82" r="33.42"/>
  <circle class="st1" cx="110.84" cy="705.56" r="33.42"/>
  <circle class="st1" cx="88.01" cy="772.4" r="33.42"/>
  <circle class="st1" cx="142" cy="828.32" r="33.42"/>
  <circle class="st1" cx="171" cy="759.86" r="33.42"/>
  <circle class="st1" cx="242.59" cy="738.98" r="33.42"/>
  <circle class="st1" cx="317.84" cy="715.98" r="33.42"/>
  <circle class="st1" cx="396.01" cy="698.76" r="33.42"/>
  <circle class="st1" cx="474.19" cy="682.56" r="33.42"/>
  <circle class="st1" cx="547.51" cy="663.98" r="33.42"/>
  <circle class="st1" cx="628.67" cy="643.4" r="33.42"/>
  <circle class="st1" cx="700.51" cy="624.56" r="33.42"/>
  <circle class="st1" cx="772.76" cy="609.98" r="33.42"/>
  <circle class="st1" cx="851" cy="588.98" r="33.42"/>
  <circle class="st1" cx="933.16" cy="571.72" r="33.42"/>
  <circle class="st1" cx="1011.6" cy="557.72" r="33.42"/>
  <circle class="st1" cx="983.13" cy="631.92" r="33.42"/>
  <circle class="st1" cx="833.84" cy="663.44" r="33.42"/>
  <circle class="st1" cx="728.74" cy="755.14" r="33.42"/>
  <circle class="st1" cx="891.09" cy="706.12" r="33.42"/>
  <circle class="st1" cx="957.93" cy="759.86" r="33.42"/>
  <circle class="st1" cx="811.7" cy="738.98" r="33.42"/>
  <circle class="st1" cx="758.55" cy="680.82" r="33.42"/>
  <circle class="st1" cx="674.59" cy="698.76" r="33.42"/>
  <circle class="st1" cx="654.33" cy="772.4" r="33.42"/>
  <circle class="st1" cx="596.59" cy="714.24" r="33.42"/>
  <circle class="st1" cx="514.1" cy="738.98" r="33.42"/>
  <circle class="st1" cx="-5" cy="861.74" r="33.42"/>
  <circle class="st1" cx="70.75" cy="852.5" r="33.42"/>
  <circle class="st1" cx="8.3" cy="793.28" r="33.42"/>
  <circle class="st1" cx="-.01" cy="597.14" r="33.42"/>
  <circle class="st1" cx="662.09" cy="504.88" r="33.42"/>
  <circle class="st1" cx="535.47" cy="471.46" r="33.42"/>
  <circle class="st1" cx="511.69" cy="537.4" r="33.42"/>
  <circle class="st1" cx="431.6" cy="555.56" r="33.42"/>
  <circle class="st1" cx="380.13" cy="505.46" r="33.42"/>
  <circle class="st1" cx="284.42" cy="591.14" r="33.42"/>
  <circle class="st1" cx="362.59" cy="581.36" r="33.42"/>
  <circle class="st1" cx="758.55" cy="418.88" r="33.42"/>
  <circle class="st1" cx="681.75" cy="433.2" r="33.42"/>
  <circle class="st1" cx="1017.6" cy="33.42" r="33.42"/>
  <circle class="st1" cx="218.75" cy="352.78" r="33.42"/>
</svg>