<?xml version="1.0" encoding="UTF-8"?>
<svg xmlns="http://www.w3.org/2000/svg" version="1.1" viewBox="0 0 512 512">
  <!-- Generator: Adobe Illustrator 29.8.1, SVG Export Plug-In . SVG Version: 2.1.1 Build 2)  -->
  <defs>
    <style>
      .st0 {
        fill: #231f20;
      }

      .st1 {
        fill: #abe1fa;
      }

      .st2 {
        fill: #fff;
      }

      .st3 {
        display: none;
      }

      .st4 {
        fill: #00bdf2;
      }
    </style>
  </defs>
  <g id="Layer_3" class="st3">
    <rect class="st0" width="512" height="512"/>
  </g>
  <g id="Layer_2">
    <circle class="st1" cx="256" cy="305.01" r="25"/>
    <g>
      <circle class="st4" cx="299.75" cy="313.51" r="17.5"/>
      <circle class="st4" cx="336" cy="313.51" r="17.5"/>
      <circle class="st4" cx="376" cy="313.51" r="17.5"/>
      <circle class="st4" cx="212.25" cy="313.51" r="17.5"/>
      <circle class="st4" cx="176" cy="313.51" r="17.5"/>
      <circle class="st4" cx="136" cy="313.51" r="17.5"/>
      <circle class="st4" cx="316" cy="348.51" r="17.5"/>
      <circle class="st4" cx="356" cy="348.51" r="17.5"/>
      <circle class="st4" cx="276" cy="348.51" r="17.5"/>
      <circle class="st4" cx="236" cy="348.51" r="17.5"/>
      <circle class="st4" cx="196" cy="348.51" r="17.5"/>
      <circle class="st4" cx="156" cy="348.51" r="17.5"/>
      <circle class="st4" cx="296" cy="383.51" r="17.5"/>
      <circle class="st4" cx="256" cy="383.51" r="17.5"/>
      <circle class="st4" cx="216" cy="383.51" r="17.5"/>
    </g>
    <g>
      <path class="st2" d="M198.5,7.65v89.69c0,3.39.57,6.75,1.68,9.95l47.6,136.61c2.71,7.78,13.71,7.78,16.43,0l47.59-136.58c1.12-3.22,1.69-6.6,1.69-10.01V7.65c0-2.87-2.32-5.19-5.19-5.19h-104.62c-2.87,0-5.19,2.32-5.19,5.19Z"/>
      <g>
        <path class="st2" d="M258.1,52.85h0c-.36-.21-.81-.21-1.17,0h0c-1.02.6-.6,2.16.59,2.16h0c1.19,0,1.61-1.57.58-2.17Z"/>
        <path class="st2" d="M328.81,101.02v26.25c0,1.51.81,2.91,2.12,3.67l83.59,48.26c1.33.77,2.14,2.19,2.12,3.73l-2.29,182.02c-.02,1.48-.8,2.84-2.07,3.59l-156.49,93c-1.32.78-2.96.79-4.29.03l-154.02-88.92c-1.33-.77-2.14-2.19-2.12-3.73l2.29-182.02c.02-1.48.8-2.84,2.07-3.59l81.39-48.37c1.29-.76,2.07-2.15,2.07-3.65v-27.79c0-3.28-3.56-5.32-6.38-3.66l-109.93,64.47c-1.29.76-2.08,2.13-2.1,3.63l-1.48,218.53c-.01,1.53.8,2.94,2.12,3.7l186.93,107.93c1.32.76,2.95.76,4.26-.01l188.51-110.55c1.29-.76,2.08-2.13,2.1-3.63l1.48-218.53c.01-1.53-.8-2.94-2.12-3.7l-111.41-64.33c-2.83-1.63-6.36.41-6.36,3.67Z"/>
      </g>
    </g>
  </g>
</svg>